<svg xmlns:ns="&amp;ns_sfw;" xmlns:dc="http://purl.org/dc/elements/1.1/"
     xmlns:cc="http://creativecommons.org/ns#" class="stack-element"
     xmlns:rdf="http://www.w3.org/1999/02/22-rdf-syntax-ns#"
     xmlns="http://www.w3.org/2000/svg" id="rooms-named" xml:space="preserve"
     enable-background="new 0 0 422.5 155.5" viewBox="0 0 422.5 155.5"height="155.5px" width="422.5px" y="0px" x="0px" version="1.1">
    <defs id="defs5751" />
    <metadata id="metadata5705">
        <ns:sfw>
            <ns:slices />
            <ns:sliceSourceBounds bottomLeftOrigin="true" y="237.492" x="22.197" height="307.977" width="410.162" /></ns:sfw>
        <rdf:RDF>
            <cc:Work rdf:about="">
                <dc:format>image/svg+xml</dc:format>
                <dc:type rdf:resource="http://purl.org/dc/dcmitype/StillImage" />
                <dc:title></dc:title>
            </cc:Work>
        </rdf:RDF>
    </metadata>
    <g id="RoomsOverlay">
        <rect style="fill:none" class="1570" height="59.16" width="54.299999" y="14.988" x="42.229" />
        <path style="fill:none" class="1561" d="m 121.489,31.008 -24.12,0 0,-20.58 24.12,0 0,4.32 0.721,0 0,9.359 c 0,0 -2.522,-0.201 -4.597,2 -1.655,1.756 -1.643,4.181 -1.643,4.181 l 5.52,-0.061 0,0.781 z" />
        <path style="fill:none" class="1563" d="m 122.21,52.668 -24.841,0 0,-20.82 24.841,0 0,13.92 c 0,0 -2.268,0.122 -4.103,1.507 -2.138,1.613 -2.138,4.613 -2.138,4.613 l 6.24,0 0,0.78 z" />
        <path style="fill:none" class="1565" d="m 122.21,74.148 -24.841,0 0,-20.64 24.841,0 0,13.68 c 0,0 -2.843,0.062 -4.473,1.921 -1.987,2.266 -1.768,4.319 -1.768,4.319 l 6.24,0 0,0.72 z" />
        <path style="fill:none" class="1670" d="m 96.529,140.268 -2.22,0 0,-6.18 c 0,0 -2.363,-0.052 -3.978,1.663 -1.962,2.084 -1.962,4.517 -1.962,4.517 l -1.92,0 0,1.74 -37.979,0 0,-1.38 -6.241,0 0,-63.72 54.3,0 0,63.36 z" />
        <path style="fill:none" class="1665" d="m 122.09,76.908 -24.721,0 0,20.58 24.84,0 10e-4,-13.681 c 0,0 -2.272,0.328 -4.498,-1.89 -1.771,-1.765 -1.743,-4.23 -1.743,-4.23 l 6.12,0 0,-0.779 z" />
        <path style="fill:none" class="1663" d="m 122.09,98.328 -24.721,0 0,20.88 24.721,0 0.12,-13.92 c 0,0 -2.366,0.24 -4.561,-2 -1.733,-1.769 -1.68,-4.181 -1.68,-4.181 l 6.12,0 0,-0.779 z" />
        <path style="fill:none" class="1661" d="m 122.09,120.048 -24.721,0 0,20.58 24.12,0 0,-4.321 0.721,0.001 0,-9.359 c 0,0 -1.303,0.516 -3.927,-1.417 -2.313,-1.703 -2.313,-4.823 -2.313,-4.823 l 6.12,0 0,-0.661 z" />
        <path style="fill:none" class="1550" d="m 158.63,14.988 12,0 -0.001,-5.94 73.261,0 0,65.101 -78.3,-0.001 c 0,0 0.118,-2.415 -1.609,-4.174 -1.897,-1.932 -4.331,-2.066 -4.331,-2.066 l 0,6.24 -1.02,0.001 0,-59.161 z" />
        <path style="fill:none" class="1650" d="m 158.63,140.268 1.38,0 0,-6.18 c 0,0 2.271,0 4.233,1.979 1.947,1.964 1.707,4.201 1.707,4.201 l 1.86,0 0,1.74 56.28,0 0,-65.1 -65.46,0 0,63.36 z" />
        <path style="fill:none" class="1560" d="m 157.789,31.008 -24.779,0 -0.061,-0.72 6.24,0 c 0,0 0.364,-1.817 -1.658,-4.163 -1.953,-2.266 -4.582,-2.018 -4.582,-2.018 l 0,-9.359 0.66,0 0,-4.32 24.18,0 0,20.58 z" />
        <path style="fill:none" class="1562" d="m 132.949,52.668 24.84,0 0,-20.82 -24.84,0 0,13.92 c 0,0 3.12,-0.184 5.008,2.4 1.27,1.737 1.232,3.84 1.232,3.84 l -6.24,-0.001 0,0.661 z" />
        <path style="fill:none" class="1564" d="m 132.949,74.148 24.84,0 0,-20.64 -24.84,0 0,13.68 c 0,0 2.77,-0.281 5.008,2.598 1.36,1.749 1.232,3.643 1.232,3.643 l -6.24,0 0,0.719 z" />
        <path style="fill:none" class="1662" d="m 132.949,119.208 24.84,0 0,-20.88 -24.84,0 0,0.72 6.24,0 c 0,0 -0.107,2.396 -1.386,3.87 -2.055,2.37 -4.854,2.37 -4.854,2.37 l 0,13.92 z" />
        <path style="fill:none" class="1660" d="m 133.729,140.628 24.06,0 0,-20.58 -24.84,0 0,0.66 6.24,0 c 0,0 0.215,2.697 -2.158,4.64 -2.282,1.868 -4.082,1.601 -4.082,1.601 l 0,9.359 0.66,0 0.12,4.32 z" />
        <path style="fill:none" class="1640" d="m 278.869,142.008 -44.76,0 0,-1.74 -1.86,0 c 0,0 0.416,-1.812 -2.134,-4.627 -1.406,-1.553 -3.985,-1.541 -3.985,-1.541 l 0,6.168 -1.2,0 0,-63.36 53.939,0 0,65.1 z" />
        <path style="fill:none" class="1530" d="m 289.249,9.048 -35.34,0 0,1.68 -1.77,0 c 0,0 0,2.627 -1.924,4.411 -1.839,1.706 -4.106,1.829 -4.106,1.829 l 0,-6.24 -0.96,0 0,63.421 44.1,0 -2.88,-2.4 5.76,-4.681 -5.76,-4.739 5.76,-4.74 -5.76,-4.74 5.76,-4.739 -5.76,-4.74 5.76,-4.74 -2.88,-2.341 0,-27.241 z" />
        <polygon style="fill:none" class="1520" points="327.109,9.048 327.109,14.988 338.39,14.987 339.109,14.987 339.109,74.148 289.249,74.148 286.369,71.748 292.129,67.067 286.369,62.328 292.129,57.588 286.369,52.848 292.129,48.108 286.369,43.368 292.129,38.628 289.249,36.288 289.249,9.048 " />
        <path style="fill:none" class="1688" d="m 39.47,102.048 -24.841,0 0,-1.319 6.24,0 c 0,0 -0.077,-2.396 -1.658,-3.942 -2.337,-2.286 -4.582,-1.998 -4.582,-1.998 l 0,-17.88 3.66,0 0,-2.76 -3.659,-0.001 -0.001,-7.319 26.761,0 0,7.56 -1.92,0 0,13.381 -3.181,0 0,4.38 3.181,0 0,9.898 z" />
    </g>
</svg>
