<?xml version="1.0" encoding="UTF-8" standalone="no"?>
<svg
   xmlns:dc="http://purl.org/dc/elements/1.1/"
   xmlns:cc="http://creativecommons.org/ns#"
   xmlns:rdf="http://www.w3.org/1999/02/22-rdf-syntax-ns#"
   xmlns:svg="http://www.w3.org/2000/svg"
   xmlns="http://www.w3.org/2000/svg"
   xmlns:sodipodi="http://sodipodi.sourceforge.net/DTD/sodipodi-0.dtd"
   xmlns:inkscape="http://www.inkscape.org/namespaces/inkscape"
   viewBox="0 0 18 18"
   version="1.1"
   x="0px"
   y="0px"
   id="svg3390"
   inkscape:version="0.91 r13725"
   sodipodi:docname="trash.svg"
   width="18"
   height="18">
  <metadata
     id="metadata3404">
    <rdf:RDF>
      <cc:Work
         rdf:about="">
        <dc:format>image/svg+xml</dc:format>
        <dc:type
           rdf:resource="http://purl.org/dc/dcmitype/StillImage" />
        <dc:title>mountains-2 copy</dc:title>
      </cc:Work>
    </rdf:RDF>
  </metadata>
  <defs
     id="defs3402" />
  <sodipodi:namedview
     pagecolor="#000000"
     bordercolor="#666666"
     borderopacity="1"
     objecttolerance="10"
     gridtolerance="10"
     guidetolerance="10"
     inkscape:pageopacity="0"
     inkscape:pageshadow="2"
     inkscape:window-width="1920"
     inkscape:window-height="1148"
     id="namedview3400"
     showgrid="false"
     showguides="true"
     inkscape:guide-bbox="true"
     inkscape:zoom="45.254834"
     inkscape:cx="10.178837"
     inkscape:cy="8.6210259"
     inkscape:window-x="0"
     inkscape:window-y="24"
     inkscape:window-maximized="1"
     inkscape:current-layer="g3396" />
  <title
     id="title3392">mountains-2 copy</title>
  <desc
     id="desc3394">Created with Sketch.</desc>
  <g
     id="g3396"
     style="fill:#000000;fill-opacity:1;fill-rule:evenodd;stroke:none;stroke-width:1;stroke-opacity:1"
     transform="translate(0,-82)">
    <path
       d="m 10.467057,96.871194 1.390599,0 0.02128,-7.926199 -1.433167,-0.02129 z m -4.2266876,-0.02128 1.3905992,0 0,-7.9262 -1.3905992,0 z M 16.302,84.760076 l 0,0.916093 -14.6040001,0 0.021284,-0.979946 c 0.013929,-0.641341 0.2666393,-0.9507 0.9081325,-0.9507 l 3.8603377,0 0,-0.582443 c 0,-0.641494 0.522049,-1.163082 1.1635423,-1.163082 l 2.6978676,0 c 0.641494,0 1.163543,0.521587 1.163543,1.163082 l 0,0.561159 0.578342,0 3.090439,0 c 0.641492,0 1.120512,0.394345 1.120512,1.035838 z m -2.161642,2.427258 1.539589,-0.04256 0,11.102305 C 15.679947,99.213701 14.893645,100 13.927024,100 l -9.8110183,0 C 3.1498459,100 2.363544,99.2137 2.363544,98.247079 l 0,-11.102305 1.5608726,-0.02128 0.021284,10.86818 c 0,0.457946 0.2662078,0.660302 0.7236926,0.660302 l 8.8745168,0 c 0.457946,0 0.640806,-0.117219 0.639016,-0.575165 z"
       id="path3398"
       style="fill:#ffffff;fill-opacity:1;stroke:none;stroke-opacity:1"
       inkscape:connector-curvature="0"
       sodipodi:nodetypes="cccccccccccccsscssssccscsccssssccssss" />
  </g>
</svg>
